<svg width="16" height="12" viewBox="0 0 16 12" fill="none" xmlns="http://www.w3.org/2000/svg">
<path d="M14.8571 0H1.14286C0.839753 0 0.549062 0.120408 0.334735 0.334735C0.120408 0.549062 0 0.839753 0 1.14286V10.2857C0 10.5888 0.120408 10.8795 0.334735 11.0938C0.549062 11.3082 0.839753 11.4286 1.14286 11.4286H14.8571C15.1602 11.4286 15.4509 11.3082 15.6653 11.0938C15.8796 10.8795 16 10.5888 16 10.2857V1.14286C16 0.839753 15.8796 0.549062 15.6653 0.334735C15.4509 0.120408 15.1602 0 14.8571 0ZM13.6 1.14286L8 5.01714L2.4 1.14286H13.6ZM1.14286 10.2857V1.66286L7.67429 6.18286C7.76994 6.24922 7.88358 6.28478 8 6.28478C8.11642 6.28478 8.23006 6.24922 8.32571 6.18286L14.8571 1.66286V10.2857H1.14286Z" fill="#0CD5F0"/>
</svg>
