<svg width="16" height="16" viewBox="0 0 16 16" fill="none" xmlns="http://www.w3.org/2000/svg">
<path d="M1.45455 0C0.658909 0 0 0.658909 0 1.45455V14.5455C0 15.3411 0.658909 16 1.45455 16H14.5455C15.3411 16 16 15.3411 16 14.5455V1.45455C16 0.658909 15.3411 0 14.5455 0H1.45455ZM1.45455 1.45455H14.5455V14.5455H10.7724V9.63636H12.6589L12.9316 7.45455H10.7731V6.04509C10.7731 5.40945 10.9287 4.97745 11.8407 4.97745H13.0225V3C12.8211 2.97455 12.1222 2.93164 11.3185 2.93164C9.64218 2.93164 8.50036 3.94036 8.50036 5.81818V7.45455H6.59127V9.63636H8.49964V14.5455H1.45455V1.45455Z" fill="#0CD5F0"/>
</svg>
