<svg width="13" height="21" viewBox="0 0 13 21" fill="none" xmlns="http://www.w3.org/2000/svg">
<path d="M10.4 1.3C10.7448 1.3 11.0754 1.43696 11.3192 1.68076C11.563 1.92456 11.7 2.25522 11.7 2.6V18.2C11.7 18.5448 11.563 18.8754 11.3192 19.1192C11.0754 19.363 10.7448 19.5 10.4 19.5H2.6C2.25522 19.5 1.92456 19.363 1.68076 19.1192C1.43696 18.8754 1.3 18.5448 1.3 18.2V2.6C1.3 2.25522 1.43696 1.92456 1.68076 1.68076C1.92456 1.43696 2.25522 1.3 2.6 1.3H10.4ZM2.6 0C1.91044 0 1.24912 0.273928 0.761522 0.761522C0.273928 1.24912 0 1.91044 0 2.6V18.2C0 18.8896 0.273928 19.5509 0.761522 20.0385C1.24912 20.5261 1.91044 20.8 2.6 20.8H10.4C11.0896 20.8 11.7509 20.5261 12.2385 20.0385C12.7261 19.5509 13 18.8896 13 18.2V2.6C13 1.91044 12.7261 1.24912 12.2385 0.761522C11.7509 0.273928 11.0896 0 10.4 0L2.6 0Z" fill="#0CD5F0"/>
<path d="M6.5 18.2001C6.84478 18.2001 7.17544 18.0631 7.41924 17.8193C7.66304 17.5755 7.8 17.2449 7.8 16.9001C7.8 16.5553 7.66304 16.2247 7.41924 15.9809C7.17544 15.7371 6.84478 15.6001 6.5 15.6001C6.15522 15.6001 5.82456 15.7371 5.58076 15.9809C5.33696 16.2247 5.2 16.5553 5.2 16.9001C5.2 17.2449 5.33696 17.5755 5.58076 17.8193C5.82456 18.0631 6.15522 18.2001 6.5 18.2001Z" fill="#0CD5F0"/>
</svg>
