<svg width="18" height="14" viewBox="0 0 18 14" fill="none" xmlns="http://www.w3.org/2000/svg">
<path d="M15.4053 2.62063C15.3388 2.35987 15.1497 2.163 14.9336 2.10262C14.5512 1.995 12.6875 1.75 8.75 1.75C4.8125 1.75 2.9505 1.995 2.56463 2.10262C2.35113 2.16212 2.16213 2.359 2.09475 2.62063C1.99938 2.99162 1.75 4.5465 1.75 7C1.75 9.4535 1.99938 11.0075 2.09475 11.3803C2.16125 11.6401 2.35025 11.837 2.5655 11.8965C2.9505 12.005 4.8125 12.25 8.75 12.25C12.6875 12.25 14.5504 12.005 14.9354 11.8974C15.1489 11.8379 15.3379 11.641 15.4053 11.3794C15.5006 11.0084 15.75 9.45 15.75 7C15.75 4.55 15.5006 2.9925 15.4053 2.62063ZM17.1001 2.18575C17.5 3.745 17.5 7 17.5 7C17.5 7 17.5 10.255 17.1001 11.8143C16.8779 12.6761 16.2277 13.3542 15.4044 13.5835C13.909 14 8.75 14 8.75 14C8.75 14 3.59363 14 2.09562 13.5835C1.26875 13.3507 0.6195 12.6735 0.399875 11.8143C2.6077e-08 10.255 0 7 0 7C0 7 2.6077e-08 3.745 0.399875 2.18575C0.622125 1.32388 1.27225 0.64575 2.09562 0.4165C3.59363 -1.56462e-07 8.75 0 8.75 0C8.75 0 13.909 -1.56462e-07 15.4044 0.4165C16.2312 0.64925 16.8805 1.3265 17.1001 2.18575ZM7 10.0625V3.9375L12.25 7L7 10.0625Z" fill="#0CD5F0"/>
</svg>
