<svg width="24" height="20" viewBox="0 0 24 20" fill="none" xmlns="http://www.w3.org/2000/svg">
<path d="M21.0727 12V2H2.74544V12H21.0727ZM21.0727 0C21.6128 0 22.1307 0.210714 22.5126 0.585786C22.8945 0.960859 23.1091 1.46957 23.1091 2V14C23.1091 14.5304 22.8945 15.0391 22.5126 15.4142C22.1307 15.7893 21.6128 16 21.0727 16H13.9454L15.9818 19V20H7.83635V19L9.87271 16H2.74544C2.20536 16 1.68741 15.7893 1.30551 15.4142C0.923621 15.0391 0.709076 14.5304 0.709076 14V2C0.709076 0.89 1.61526 0 2.74544 0H21.0727ZM3.76362 3H14.9636V8H3.76362V3ZM15.9818 3H20.0545V5H15.9818V3ZM20.0545 6V11H15.9818V6H20.0545ZM3.76362 9H8.85453V11H3.76362V9ZM9.87271 9H14.9636V11H9.87271V9Z" fill="#37E7FF"/>
</svg>
